<svg xmlns="http://www.w3.org/2000/svg" xmlns:xlink="http://www.w3.org/1999/xlink" viewBox="0 0 842.6 494.37"><defs><style>.a,.c,.d,.e,.g,.m,.n,.o,.p,.q,.r,.s,.t,.u{fill:none;}.b{fill:#00b7bd;}.c,.d,.e,.m,.n,.o,.p,.q,.s,.t{stroke-miterlimit:10;}.c{stroke:url(#a);}.d{stroke:url(#b);}.e{stroke:url(#c);}.f{clip-path:url(#d);}.g,.n{stroke:#00b7bd;stroke-width:2px;stroke-dasharray:2 4;}.g,.r,.u{stroke-linecap:round;stroke-linejoin:round;}.h{clip-path:url(#e);}.i{clip-path:url(#f);}.j{clip-path:url(#g);}.k{clip-path:url(#h);}.l,.w{font-size:11.51px;}.l,.v{fill:#573b6d;font-family:Gotham-Book, Gotham;}.m{stroke:url(#i);}.o{stroke:url(#j);}.p{stroke:url(#k);}.q{stroke:url(#l);}.r{stroke-dasharray:2 4.01;stroke:url(#m);}.s{stroke:url(#n);}.t{stroke:url(#o);}.u{stroke-dasharray:2.01 4.03;stroke:url(#p);}.v{font-size:17.27px;}</style><linearGradient id="a" x1="736.78" y1="174.53" x2="842.6" y2="174.53" gradientUnits="userSpaceOnUse"><stop offset="0" stop-color="#00b7bd"/><stop offset="1" stop-color="#303294"/></linearGradient><linearGradient id="b" x1="736.78" y1="249.38" x2="842.6" y2="249.38" xlink:href="#a"/><linearGradient id="c" x1="736.78" y1="324.24" x2="842.6" y2="324.24" xlink:href="#a"/><clipPath id="d"><polygon class="a" points="541.45 263.13 508.29 262.97 508.3 240.43 541.45 240.59 541.45 263.13"/></clipPath><clipPath id="e"><polygon class="a" points="637.86 264.15 614.24 263.99 614.25 241.45 637.86 241.61 637.86 264.15"/></clipPath><clipPath id="f"><polygon class="a" points="733.54 264.15 708.24 263.99 708.24 241.45 733.54 241.61 733.54 264.15"/></clipPath><clipPath id="g"><polygon class="a" points="634.19 294.81 614.09 260.74 616.31 255.64 636.41 289.71 634.19 294.81"/></clipPath><clipPath id="h"><polygon class="a" points="617.76 241.45 637.86 207.38 635.64 202.28 615.54 236.35 617.76 241.45"/></clipPath><linearGradient id="i" x1="379.08" y1="249.92" x2="508.79" y2="249.92" xlink:href="#a"/><linearGradient id="j" x1="0" y1="249.92" x2="129.71" y2="249.92" xlink:href="#a"/><linearGradient id="k" x1="179.29" y1="73.35" x2="325.99" y2="73.35" xlink:href="#a"/><linearGradient id="l" x1="193.57" y1="73.35" x2="312.01" y2="73.35" xlink:href="#a"/><linearGradient id="m" x1="186.28" y1="73.97" x2="319.31" y2="73.97" gradientTransform="translate(224.39 -187.89) rotate(67.5)" xlink:href="#a"/><linearGradient id="n" x1="179.19" y1="421.02" x2="325.89" y2="421.02" xlink:href="#a"/><linearGradient id="o" x1="193.32" y1="421.02" x2="311.76" y2="421.02" xlink:href="#a"/><linearGradient id="p" x1="186.69" y1="421.02" x2="318.39" y2="421.02" xlink:href="#a"/></defs><title>Identity-Management-1</title><path class="b" d="M438.86,205.62l.69-1,2.79-4a.86.86,0,0,1,.94-.38.85.85,0,0,1,.5,1.32c-.39.58-.8,1.16-1.21,1.74l-2.75,3.94a.85.85,0,0,1-1,.35.94.94,0,0,1-.24-.13l-5.64-3.94a.82.82,0,0,1-.38-.82.85.85,0,0,1,1.26-.65l.16.1,4.81,3.36A.94.94,0,0,1,438.86,205.62Z"/><path class="b" d="M68.21,286.32l-.7,1-2.8,4a.87.87,0,0,1-.94.38.86.86,0,0,1-.51-1.32l1.22-1.75,2.76-3.95a.87.87,0,0,1,1-.36,1,1,0,0,1,.24.14l5.67,4a.85.85,0,0,1,.38.83.8.8,0,0,1-.52.69.83.83,0,0,1-.75,0l-.16-.11-4.83-3.38Z"/><rect class="c" x="737.28" y="143.58" width="104.83" height="61.9"/><rect class="d" x="737.28" y="218.43" width="104.83" height="61.9"/><rect class="e" x="737.28" y="293.29" width="104.83" height="61.9"/><g class="f"><line class="g" x1="543.36" y1="251.11" x2="506.77" y2="250.93"/></g><g class="h"><line class="g" x1="639.21" y1="252.12" x2="613.15" y2="251.94"/></g><g class="i"><line class="g" x1="734.99" y1="252.12" x2="707.08" y2="251.94"/></g><g class="j"><line class="g" x1="636.53" y1="294.04" x2="614.35" y2="256.45"/></g><g class="k"><line class="g" x1="615.42" y1="240.68" x2="637.6" y2="203.09"/></g><text class="l" transform="translate(564.1 254.87)">Node</text><text class="l" transform="translate(657.57 179.8)">Node</text><text class="l" transform="translate(657.57 255.14)">Node</text><text class="l" transform="translate(657.57 329.99)">Node</text><text class="l" transform="translate(775.38 179.8)">Bank</text><text class="l" transform="translate(754.39 254.14)">Government</text><text class="l" transform="translate(771.19 321.36)">Health<tspan x="5.31" y="13.81">Care</tspan></text><rect class="m" x="379.58" y="220.37" width="128.71" height="59.1"/><rect class="n" x="546.39" y="218.43" width="66.41" height="61.9"/><rect class="n" x="639.86" y="143.58" width="66.41" height="61.9"/><rect class="n" x="639.86" y="218.43" width="66.41" height="61.9"/><rect class="n" x="639.86" y="293.29" width="66.41" height="61.9"/><text></text><text></text><text></text><text class="l" transform="translate(409.06 239.39)">Government<tspan x="2.16" y="13.81">or Financial</tspan><tspan x="4.73" y="27.63">Institution </tspan></text><path class="g" d="M67.15,219.25A190,190,0,0,1,178.71,75.91"/><path class="g" d="M178.6,423.88A189.94,189.94,0,0,1,67.15,280.56"/><path class="g" d="M441.65,280.58a190,190,0,0,1-115.37,145"/><path class="g" d="M326.39,74.35A189.94,189.94,0,0,1,441.56,218.78"/><rect class="o" x="0.5" y="220.37" width="128.71" height="59.1"/><text class="l" transform="translate(38.8 255.19)">Customer</text><circle class="p" cx="252.64" cy="73.35" r="72.85"/><circle class="q" cx="252.79" cy="73.35" r="58.72"/><circle class="r" cx="252.79" cy="73.97" r="66.01" transform="translate(87.72 279.21) rotate(-67.5)"/><circle class="s" cx="252.54" cy="421.02" r="72.85"/><circle class="t" cx="252.54" cy="421.02" r="58.72"/><circle class="u" cx="252.54" cy="421.02" r="65.35"/><text class="v" transform="translate(234.72 51.62)">KYC<tspan x="-31.08" y="20.72">Documents</tspan><tspan class="w"><tspan x="-30.33" y="34.53">Other necessary </tspan><tspan x="-15.79" y="48.35">documents </tspan></tspan></text><text class="l" transform="translate(212.19 415.29)">Unique Digital<tspan x="-4.62" y="13.81">Identity Proof &amp;</tspan><tspan x="-8.88" y="27.63">Digital Signature </tspan></text></svg>