<svg xmlns="http://www.w3.org/2000/svg" xmlns:xlink="http://www.w3.org/1999/xlink" viewBox="0 0 621.01 617.63"><defs><style>.a{fill:#573b6d;}.b,.d{fill:#00b7bd;}.b{opacity:0.2;isolation:isolate;}.c{opacity:0.7;}.d{opacity:0.53;}.e{fill:#303294;}.f,.g,.j,.k,.l,.m,.n{fill:none;}.f,.g,.k,.m,.n{stroke-miterlimit:10;}.f,.g{stroke-width:0.99px;}.f{stroke:url(#a);}.g{stroke:url(#b);}.h{fill:url(#c);}.i{fill:url(#d);}.j,.l{stroke:#00b7bd;stroke-linecap:round;stroke-linejoin:round;stroke-dasharray:2 5;}.j,.m,.n{stroke-width:2px;}.k{stroke:#573b6d;}.k,.l{stroke-width:3px;}.m{stroke:url(#e);}.n{stroke:url(#f);}</style><linearGradient id="a" x1="884.8" y1="12416.81" x2="932.69" y2="12399.4" gradientTransform="matrix(0.61, 0.87, 0.57, -0.82, -7312.84, 9421.3)" gradientUnits="userSpaceOnUse"><stop offset="0" stop-color="#00b7bd"/><stop offset="1" stop-color="#303294"/></linearGradient><linearGradient id="b" x1="855.3" y1="12334.17" x2="930.31" y2="12306.87" gradientTransform="matrix(1.03, 0.26, -0.1, -1, 635.86, 12170.58)" xlink:href="#a"/><linearGradient id="c" x1="879.53" y1="12417.08" x2="924.3" y2="12417.08" gradientTransform="matrix(0.4, 1.17, 0.57, -0.82, -7131.49, 9171.62)" gradientUnits="userSpaceOnUse"><stop offset="0" stop-color="#595ba9"/><stop offset="0.63" stop-color="#3c3e9a"/><stop offset="1" stop-color="#303294"/></linearGradient><linearGradient id="d" x1="844.16" y1="12321.8" x2="916.2" y2="12321.8" gradientTransform="matrix(1.07, 0.62, -0.1, -1, 602.47, 11862.28)" xlink:href="#c"/><linearGradient id="e" x1="357.06" y1="567.81" x2="621.01" y2="567.81" gradientTransform="matrix(1, 0, 0, 1, 0, 0)" xlink:href="#a"/><linearGradient id="f" x1="0" y1="567.81" x2="263.95" y2="567.81" gradientTransform="matrix(1, 0, 0, 1, 0, 0)" xlink:href="#a"/></defs><title>Asset 22</title><path class="a" d="M267.59,218.18a9,9,0,0,1,0-12,7.49,7.49,0,0,1,5.72-2.43,7.18,7.18,0,0,1,4.71,1.7v1.81a6.23,6.23,0,0,0-4.71-2.11,6.15,6.15,0,0,0-4.74,2,7.58,7.58,0,0,0,0,9.95,6.46,6.46,0,0,0,9.45-.07v1.79a7.15,7.15,0,0,1-4.71,1.72A7.49,7.49,0,0,1,267.59,218.18Z"/><path class="a" d="M290.07,209.48v10.91h-1.31l-.09-1.66a4.07,4.07,0,0,1-1.53,1.38,4.34,4.34,0,0,1-2,.5,4.28,4.28,0,0,1-4.31-4.3v-6.83h1.45v6.68a3.12,3.12,0,0,0,3.16,3.16,3.16,3.16,0,0,0,2.28-.92,3,3,0,0,0,.95-2.24v-6.68Z"/><path class="a" d="M294.44,220.09a3.87,3.87,0,0,1-1.77-1.31l.83-.92a2.93,2.93,0,0,0,1.38,1.08,5.34,5.34,0,0,0,2.09.47,3.29,3.29,0,0,0,1.93-.49,1.62,1.62,0,0,0,.78-1.43,1.27,1.27,0,0,0-.18-.67,2.31,2.31,0,0,0-.36-.48,2.12,2.12,0,0,0-.65-.38l-.7-.27c-.15-.05-.44-.14-.86-.25l-.22-.07c-.42-.11-.76-.22-1-.3a7.7,7.7,0,0,1-.9-.4,3,3,0,0,1-.81-.55,2.77,2.77,0,0,1-.5-.77,2.36,2.36,0,0,1-.22-1,2.57,2.57,0,0,1,1.16-2.22,4.42,4.42,0,0,1,2.68-.83,5.66,5.66,0,0,1,2,.35,4.72,4.72,0,0,1,1.56.87l-.85,1a3.39,3.39,0,0,0-2.45-1,3.36,3.36,0,0,0-1.84.4,1.4,1.4,0,0,0-.8,1.3,1.43,1.43,0,0,0,.69,1.32,7.91,7.91,0,0,0,2,.78l1.08.3c.22.07.54.2.95.38a3,3,0,0,1,.89.57,3.1,3.1,0,0,1,.53.79,2.52,2.52,0,0,1,.24,1.12,2.82,2.82,0,0,1-1.17,2.31,4.63,4.63,0,0,1-2.91.9A6.6,6.6,0,0,1,294.44,220.09Z"/><path class="a" d="M308.93,219.87a2.68,2.68,0,0,1-2,.74,2.7,2.7,0,0,1-2.89-2.84v-7.16h-1.5v-1.13h1.5v-3.72h1.44v3.72h2.82v1.13H305.5v7.16a1.58,1.58,0,0,0,.4,1.17,1.44,1.44,0,0,0,1.09.41,1.5,1.5,0,0,0,1.13-.46Z"/><path class="a" d="M311.42,219a6.31,6.31,0,0,1,0-8.07,4.81,4.81,0,0,1,3.78-1.64A4.86,4.86,0,0,1,319,210.9a6.27,6.27,0,0,1,0,8.07,4.86,4.86,0,0,1-3.79,1.64A4.81,4.81,0,0,1,311.42,219Zm6.56-.91a5.15,5.15,0,0,0,0-6.26,3.73,3.73,0,0,0-5.57,0,5.15,5.15,0,0,0,0,6.26,3.71,3.71,0,0,0,5.57,0Z"/><path class="a" d="M338.17,210.43a4,4,0,0,1,1.15,2.91v7h-1.44v-6.92a2.85,2.85,0,0,0-.84-2.07,2.79,2.79,0,0,0-2.08-.85,2.9,2.9,0,0,0-2.14.87,2.87,2.87,0,0,0-.88,2.14v6.83H330.5v-6.92a2.85,2.85,0,0,0-.84-2.07,2.79,2.79,0,0,0-2.08-.85,2.9,2.9,0,0,0-2.14.87,2.87,2.87,0,0,0-.88,2.14v6.83h-1.44V209.48h1.33l.07,1.5a4.19,4.19,0,0,1,5.53-1.13,3.86,3.86,0,0,1,1.46,1.59,4.13,4.13,0,0,1,1.57-1.59,4.2,4.2,0,0,1,2.2-.59A3.92,3.92,0,0,1,338.17,210.43Z"/><path class="a" d="M352.09,215.42h-8.75a4.44,4.44,0,0,0,1.14,2.84,3.48,3.48,0,0,0,2.68,1.09,3.68,3.68,0,0,0,3.23-1.86l1,.72a4.62,4.62,0,0,1-4.28,2.4,4.75,4.75,0,0,1-3.75-1.61,6.53,6.53,0,0,1,0-8.13,4.75,4.75,0,0,1,3.75-1.61,4.59,4.59,0,0,1,3.64,1.56,5.89,5.89,0,0,1,1.36,4A4.54,4.54,0,0,1,352.09,215.42Zm-7.55-3.88a4.41,4.41,0,0,0-1.18,2.74h7.44a4.42,4.42,0,0,0-1.12-2.74,3.35,3.35,0,0,0-2.55-1A3.45,3.45,0,0,0,344.54,211.54Z"/><path class="a" d="M361.59,209.78l-.68,1.05a3.51,3.51,0,0,0-1.49-.28,3.06,3.06,0,0,0-2.26,1,3.44,3.44,0,0,0-1,2.47v6.37h-1.44V209.48h1.33l.07,1.79a4.59,4.59,0,0,1,1.47-1.47,3.55,3.55,0,0,1,1.87-.54A3.67,3.67,0,0,1,361.59,209.78Z"/><path class="a" d="M114.19,439.43l-9-8.95V439h-1.48V422.62h1.48v7.05l7-7.05h1.92l-7.42,7.4,7.53,7.45Z"/><path class="a" d="M122.46,431.22V439H121v-7.73l-5.72-8.65h1.66l4.78,7.34,4.81-7.34h1.63Z"/><path class="a" d="M130.72,436.78a9,9,0,0,1,0-11.94,7.46,7.46,0,0,1,5.72-2.44,7.18,7.18,0,0,1,4.71,1.7v1.82a6.43,6.43,0,0,0-9.45-.1,7.6,7.6,0,0,0,0,10,6.47,6.47,0,0,0,9.45-.08v1.79a7.15,7.15,0,0,1-4.71,1.72A7.49,7.49,0,0,1,130.72,436.78Z"/><path class="a" d="M294.53,438.08c4-4.06,6.31-6.38,6.84-6.95a9.27,9.27,0,0,0,2.14-3.07,4,4,0,0,0,.11-.94,3.26,3.26,0,0,0-1-2.5,3.51,3.51,0,0,0-2.46-.93,3.36,3.36,0,0,0-2.52.91,3.41,3.41,0,0,0-1.06,2.52l-1.38,0a4.51,4.51,0,0,1,1.46-3.42,4.91,4.91,0,0,1,3.54-1.3,5,5,0,0,1,3.33,1.23,4.32,4.32,0,0,1,1.43,3.22,4.16,4.16,0,0,1-.07,1c-.07.31-.14.61-.22.88a3.52,3.52,0,0,1-.57,1l-.79,1.06a14.37,14.37,0,0,1-1.23,1.37l-1.54,1.59c-.43.43-1.11,1.13-2.06,2.07l-1.86,1.86h9V439H294.53Z"/><path class="a" d="M309.92,423.93v6.2h6.42v1.33h-6.42V439h-1.48V422.62h8.82v1.31Z"/><path class="a" d="M328.26,435.44h-8.8L318.09,439h-1.62l6.58-16.38h1.63L331.26,439h-1.62Zm-.5-1.27-3.91-10-3.88,10Z"/><path class="a" d="M488.66,435.44h-8.8L478.48,439h-1.61l6.57-16.38h1.64L491.65,439H490Zm-.5-1.27-3.91-10-3.89,10Z"/><path class="a" d="M509.9,422.62V439h-1.46V424.82l-6.55,9.81-6.51-9.81V439h-1.49V422.62h1.55l6.45,9.58,6.48-9.58Z"/><path class="a" d="M513.39,422.62h1.48v15h6.18V439h-7.66Z"/><path class="a" d="M421.05,547.34a9,9,0,0,1,0-12,7.53,7.53,0,0,1,5.73-2.43,7.14,7.14,0,0,1,4.71,1.7v1.81a6.24,6.24,0,0,0-4.71-2.12,6.17,6.17,0,0,0-4.74,2,7.6,7.6,0,0,0,0,10,6.45,6.45,0,0,0,9.45-.08v1.8a7.15,7.15,0,0,1-4.71,1.72A7.53,7.53,0,0,1,421.05,547.34Z"/><path class="a" d="M441.1,538.94l-.68,1a3.5,3.5,0,0,0-1.49-.29,3.07,3.07,0,0,0-2.26,1,3.44,3.44,0,0,0-1,2.47v6.37h-1.44V538.63h1.33l.07,1.79a4.66,4.66,0,0,1,1.47-1.46,3.53,3.53,0,0,1,1.87-.54A3.67,3.67,0,0,1,441.1,538.94Z"/><path class="a" d="M451.82,550.1a5.37,5.37,0,0,1-1.24,3.66,4.62,4.62,0,0,1-3.66,1.4,6.27,6.27,0,0,1-3.84-1.2v-1.61a5.45,5.45,0,0,0,3.93,1.53,3.11,3.11,0,0,0,2.55-1,4.29,4.29,0,0,0,.81-2.77V548a4.54,4.54,0,0,1-1.53,1.32,4.2,4.2,0,0,1-2,.49,4.28,4.28,0,0,1-4.3-4.3v-6.84H444v6.69a3.14,3.14,0,0,0,3.16,3.16,3.13,3.13,0,0,0,2.28-.93,3,3,0,0,0,.95-2.23v-6.69h1.42Z"/><path class="a" d="M460.46,549a2.72,2.72,0,0,1-2,.74,2.8,2.8,0,0,1-2.09-.79,2.73,2.73,0,0,1-.79-2.05v-7.16h-1.51v-1.14h1.51v-3.71H457v3.71h2.82v1.14H457v7.16a1.62,1.62,0,0,0,.39,1.17,1.47,1.47,0,0,0,1.1.4,1.51,1.51,0,0,0,1.13-.45Z"/><path class="a" d="M463,548.13a6.29,6.29,0,0,1,0-8.08,5.2,5.2,0,0,1,7.56,0,6.25,6.25,0,0,1,0,8.08,5.18,5.18,0,0,1-7.56,0Zm6.56-.91a5.15,5.15,0,0,0,0-6.26,3.71,3.71,0,0,0-5.57,0,5.15,5.15,0,0,0,0,6.26,3.71,3.71,0,0,0,5.57,0Z"/><path class="a" d="M475.23,548.15a6.55,6.55,0,0,1,0-8.12,4.68,4.68,0,0,1,3.72-1.61,4.62,4.62,0,0,1,2.95,1v1.48a3.7,3.7,0,0,0-2.82-1.24,3.5,3.5,0,0,0-2.81,1.26,4.76,4.76,0,0,0-1.06,3.17,4.81,4.81,0,0,0,1.06,3.17,3.51,3.51,0,0,0,2.81,1.27,3.66,3.66,0,0,0,2.82-1.23v1.47a4.5,4.5,0,0,1-2.95,1A4.69,4.69,0,0,1,475.23,548.15Z"/><path class="a" d="M493.88,538.63v10.92h-1.31l-.09-1.66a4.19,4.19,0,0,1-1.54,1.38,4.29,4.29,0,0,1-2,.5,4.3,4.3,0,0,1-4.3-4.3v-6.84h1.44v6.69a3.16,3.16,0,0,0,3.17,3.16,3.13,3.13,0,0,0,2.28-.93,3,3,0,0,0,.95-2.23v-6.69Z"/><path class="a" d="M504.21,538.94l-.68,1a3.49,3.49,0,0,0-1.48-.29,3.08,3.08,0,0,0-2.27,1,3.44,3.44,0,0,0-1,2.47v6.37h-1.44V538.63h1.33l.07,1.79a4.66,4.66,0,0,1,1.47-1.46,3.55,3.55,0,0,1,1.87-.54A3.67,3.67,0,0,1,504.21,538.94Z"/><path class="a" d="M512.46,538.94l-.68,1a3.49,3.49,0,0,0-1.48-.29,3,3,0,0,0-2.26,1,3.41,3.41,0,0,0-1,2.47v6.37h-1.44V538.63H507l.06,1.79A4.69,4.69,0,0,1,508.5,539a3.52,3.52,0,0,1,1.86-.54A3.67,3.67,0,0,1,512.46,538.94Z"/><path class="a" d="M523.09,544.57h-8.76a4.5,4.5,0,0,0,1.15,2.85,3.51,3.51,0,0,0,2.68,1.08,3.69,3.69,0,0,0,3.23-1.85l1,.72a4.62,4.62,0,0,1-4.28,2.4,4.72,4.72,0,0,1-3.75-1.62,6.51,6.51,0,0,1,0-8.12,4.72,4.72,0,0,1,3.75-1.61,4.59,4.59,0,0,1,3.64,1.56,5.89,5.89,0,0,1,1.36,4C523.11,544.25,523.1,544.44,523.09,544.57Zm-7.55-3.87a4.41,4.41,0,0,0-1.18,2.74h7.44a4.42,4.42,0,0,0-1.12-2.74,3.35,3.35,0,0,0-2.55-1A3.45,3.45,0,0,0,515.54,540.7Z"/><path class="a" d="M533.8,539.63a4.12,4.12,0,0,1,1.21,3v6.9h-1.44v-6.77a2.93,2.93,0,0,0-.91-2.18,3,3,0,0,0-2.24-.9,3.17,3.17,0,0,0-2.29.92,3,3,0,0,0-.94,2.23v6.7h-1.44V538.63h1.33l.07,1.64a4.44,4.44,0,0,1,6.65-.64Z"/><path class="a" d="M539,548.15a6.59,6.59,0,0,1,0-8.12,4.69,4.69,0,0,1,3.73-1.61,4.62,4.62,0,0,1,3,1v1.48a3.7,3.7,0,0,0-2.82-1.24,3.49,3.49,0,0,0-2.81,1.26,4.76,4.76,0,0,0-1.06,3.17,4.81,4.81,0,0,0,1.06,3.17,3.5,3.5,0,0,0,2.81,1.27,3.66,3.66,0,0,0,2.82-1.23v1.47a4.5,4.5,0,0,1-3,1A4.7,4.7,0,0,1,539,548.15Z"/><path class="a" d="M557.71,550.1a5.37,5.37,0,0,1-1.23,3.66,4.62,4.62,0,0,1-3.66,1.4A6.25,6.25,0,0,1,549,554v-1.61a5.45,5.45,0,0,0,3.93,1.53,3.08,3.08,0,0,0,2.54-1,4.24,4.24,0,0,0,.82-2.77V548a4.57,4.57,0,0,1-1.54,1.32,4.17,4.17,0,0,1-2,.49,4.3,4.3,0,0,1-4.3-4.3v-6.84h1.44v6.69a3.16,3.16,0,0,0,3.17,3.16,3.13,3.13,0,0,0,2.28-.93,3,3,0,0,0,.95-2.23v-6.69h1.42Z"/><path class="a" d="M416.89,568.76a3.94,3.94,0,0,1,1,2.69,4.11,4.11,0,0,1-1.28,3.08,4.36,4.36,0,0,1-3.13,1.22h-6.81V559.37h5.48a4.42,4.42,0,0,1,3.16,1.22,4.08,4.08,0,0,1,1.29,3.08,4,4,0,0,1-.59,2.18,4.13,4.13,0,0,1-1.61,1.49A4.46,4.46,0,0,1,416.89,568.76Zm-2.7-7.16a3,3,0,0,0-2.19-.92h-3.89v6.25H412a3,3,0,0,0,2.19-.92,3.13,3.13,0,0,0,0-4.41Zm1.29,11.9a3.13,3.13,0,0,0,0-4.41,3,3,0,0,0-2.19-.92h-5.18v6.25h5.18A3,3,0,0,0,415.48,573.5Z"/><path class="a" d="M429.88,560.68h-4.59v15.05h-1.46V560.68h-4.59v-1.33h10.64Z"/><path class="a" d="M433,573.53a9,9,0,0,1,0-11.94,7.48,7.48,0,0,1,5.72-2.44,7.16,7.16,0,0,1,4.72,1.71v1.81a6.26,6.26,0,0,0-4.72-2.12,6.11,6.11,0,0,0-4.73,2,7.6,7.6,0,0,0,0,10,6.45,6.45,0,0,0,9.45-.08v1.79a7.19,7.19,0,0,1-4.72,1.73A7.51,7.51,0,0,1,433,573.53Z"/><path class="a" d="M445,579.15c.41,0,.75-.26,1-.78a3.33,3.33,0,0,0,.42-1.57c0-.56-.17-.83-.5-.83a1,1,0,0,1-.74-.32,1,1,0,0,1-.31-.75,1,1,0,0,1,1.07-1.07,1.14,1.14,0,0,1,1.06.64,3.31,3.31,0,0,1,.36,1.63,5.27,5.27,0,0,1-.67,2.62,2,2,0,0,1-1.73,1.2Z"/><path class="a" d="M457.18,560.68v6.2h6.42v1.33h-6.42v6.21h7.34v1.33H455.7V559.37h8.82v1.31Z"/><path class="a" d="M476.7,560.68h-4.58v15.05h-1.47V560.68h-4.58v-1.33H476.7Z"/><path class="a" d="M491,559.37v16.38h-1.46v-7.54h-9.37v7.54h-1.48V559.37h1.48v7.51h9.37v-7.51Z"/><path class="a" d="M493.81,579.15a1.22,1.22,0,0,0,1-.78,3.35,3.35,0,0,0,.43-1.57c0-.56-.17-.83-.51-.83a1,1,0,0,1-.74-.32,1.06,1.06,0,0,1-.31-.75,1.07,1.07,0,0,1,.31-.77,1,1,0,0,1,.77-.3,1.14,1.14,0,0,1,1.05.64,3.31,3.31,0,0,1,.36,1.63,5.37,5.37,0,0,1-.66,2.62,2,2,0,0,1-1.74,1.2Z"/><path class="a" d="M504.55,559.37h4.35a8.19,8.19,0,0,1,0,16.38h-4.35Zm4.33,15a6.45,6.45,0,0,0,4.77-2,7,7,0,0,0,0-9.73,6.42,6.42,0,0,0-4.77-2H506v13.74Z"/><path class="a" d="M529.51,572.19h-8.8l-1.38,3.56h-1.61l6.57-16.38h1.64l6.57,16.38h-1.62Zm-.51-1.27-3.9-10-3.89,10Z"/><path class="a" d="M536.22,575.08a6,6,0,0,1-2.39-2.26l1-1.09a4.17,4.17,0,0,0,1.85,2,6,6,0,0,0,3.1.8,4.77,4.77,0,0,0,2.8-.76,2.57,2.57,0,0,0,1.09-2.26,2.91,2.91,0,0,0-.25-1.19,3.45,3.45,0,0,0-.58-.88,4,4,0,0,0-1-.71c-.44-.24-.81-.42-1.11-.55l-1.28-.49-1.37-.53c-.29-.13-.69-.33-1.19-.6a4.53,4.53,0,0,1-1.1-.8,3.74,3.74,0,0,1-.65-1,3.18,3.18,0,0,1-.29-1.39,3.71,3.71,0,0,1,1.42-3.13,5.59,5.59,0,0,1,3.49-1.09,7.35,7.35,0,0,1,3,.59,5.89,5.89,0,0,1,2.14,1.55l-1,1a4.73,4.73,0,0,0-4.13-1.88,4,4,0,0,0-2.42.71,2.43,2.43,0,0,0-1,2.11,2.45,2.45,0,0,0,.29,1.18,2.52,2.52,0,0,0,.9.91,9.27,9.27,0,0,0,1.15.64c.35.16.84.35,1.46.59s1.18.45,1.48.58a13,13,0,0,1,1.27.65,5,5,0,0,1,1.23.91,4.55,4.55,0,0,1,.72,1.15,3.81,3.81,0,0,1,.32,1.6,4,4,0,0,1-1.51,3.34,6.26,6.26,0,0,1-3.9,1.16A7.29,7.29,0,0,1,536.22,575.08Z"/><path class="a" d="M560.42,559.37v16.38H559v-7.54h-9.37v7.54H548.1V559.37h1.49v7.51H559v-7.51Z"/><path class="a" d="M563.19,579.15a1.22,1.22,0,0,0,1-.78,3.24,3.24,0,0,0,.43-1.57c0-.56-.17-.83-.5-.83a1,1,0,0,1-.74-.32,1,1,0,0,1-.31-.75,1,1,0,0,1,1.07-1.07,1.14,1.14,0,0,1,1.06.64,3.31,3.31,0,0,1,.36,1.63,5.27,5.27,0,0,1-.67,2.62,2,2,0,0,1-1.73,1.2Z"/><path class="a" d="M434.38,585.57h1.49v15h6.18v1.33h-7.67Z"/><path class="a" d="M452.61,586.88H448v15h-1.47v-15H442v-1.33h10.63Z"/><path class="a" d="M455.69,599.73a9,9,0,0,1,0-12,7.49,7.49,0,0,1,5.72-2.43,7.22,7.22,0,0,1,4.72,1.7v1.81a6.27,6.27,0,0,0-4.72-2.11,6.15,6.15,0,0,0-4.74,2,7.58,7.58,0,0,0,0,10,6.15,6.15,0,0,0,4.74,2,6.23,6.23,0,0,0,4.72-2.09v1.79a7.19,7.19,0,0,1-4.72,1.72A7.49,7.49,0,0,1,455.69,599.73Z"/><path class="a" d="M467.69,605.35a1.21,1.21,0,0,0,1-.79,3.29,3.29,0,0,0,.43-1.57c0-.55-.17-.83-.51-.83a1,1,0,0,1-.74-.32,1.1,1.1,0,0,1,0-1.51,1,1,0,0,1,.77-.31,1.14,1.14,0,0,1,1.05.65,3.29,3.29,0,0,1,.36,1.62,5.34,5.34,0,0,1-.66,2.62,2,2,0,0,1-1.74,1.2Z"/><path class="a" d="M491.64,585.57v16.37h-1.33l-10.39-13.88v13.88h-1.49V585.57h1.34l10.41,13.88V585.57Z"/><path class="a" d="M511.14,585.57v16.37h-1.46V587.77l-6.55,9.81-6.51-9.81v14.17h-1.49V585.57h1.55l6.45,9.58,6.48-9.58Z"/><path class="a" d="M516.31,599.73a9,9,0,0,1,0-12,7.49,7.49,0,0,1,5.72-2.43,7.2,7.2,0,0,1,4.72,1.7v1.81a6.27,6.27,0,0,0-4.72-2.11,6.15,6.15,0,0,0-4.74,2,7.61,7.61,0,0,0,0,10,6.15,6.15,0,0,0,4.74,2,6.23,6.23,0,0,0,4.72-2.09v1.79a7.19,7.19,0,0,1-4.72,1.72A7.49,7.49,0,0,1,516.31,599.73Z"/><path class="a" d="M534.53,601.84a1,1,0,0,1,0-1.5,1.06,1.06,0,1,1,1.5,1.5,1,1,0,0,1-1.5,0Z"/><path class="a" d="M538.19,601.84a1.06,1.06,0,0,1,0-1.5,1.06,1.06,0,1,1,1.51,1.5,1.05,1.05,0,0,1-1.51,0Z"/><path class="a" d="M541.86,601.84a1.07,1.07,0,0,1,.75-1.82,1.07,1.07,0,0,1,.76.32,1.07,1.07,0,0,1-.76,1.82A1,1,0,0,1,541.86,601.84Z"/><path class="a" d="M61.33,534.49v6.2h6.42V542H61.33v7.53H59.85V533.18h8.82v1.31Z"/><path class="a" d="M71.45,536.24a1.07,1.07,0,0,1,.75-1.82,1.07,1.07,0,0,1,.76.32,1.06,1.06,0,0,1,0,1.5,1.07,1.07,0,0,1-.76.32A1,1,0,0,1,71.45,536.24Zm0,2.39h1.44v10.92H71.48Z"/><path class="a" d="M83.85,539.44a3.68,3.68,0,0,1,1.21,3v7.14H83.77l-.06-1.79a6.22,6.22,0,0,1-4.35,2,3.21,3.21,0,0,1-2.39-.94,3.26,3.26,0,0,1-.93-2.4,2.92,2.92,0,0,1,1.35-2.57c.89-.6,2.26-.72,4.09-.36l2.19.42v-1.57a2.41,2.41,0,0,0-.85-2,3.93,3.93,0,0,0-5.42,1l-1-.87a5.48,5.48,0,0,1,7.46-1Zm-.18,7V545l-2.17-.46a4.47,4.47,0,0,0-3,.15,1.79,1.79,0,0,0-1,1.64,2,2,0,0,0,.59,1.53,2.08,2.08,0,0,0,1.57.59A5.73,5.73,0,0,0,83.67,546.45Z"/><path class="a" d="M93.66,549a2.68,2.68,0,0,1-2,.74,2.8,2.8,0,0,1-2.1-.79,2.77,2.77,0,0,1-.79-2.05v-7.16h-1.5v-1.14h1.5v-3.71h1.44v3.71h2.82v1.14H90.23v7.16a1.62,1.62,0,0,0,.4,1.17,1.43,1.43,0,0,0,1.09.4,1.49,1.49,0,0,0,1.13-.45Z"/><path class="a" d="M101.77,548.15a6.55,6.55,0,0,1,0-8.12,4.69,4.69,0,0,1,3.73-1.61,4.57,4.57,0,0,1,2.94,1v1.48a3.66,3.66,0,0,0-2.81-1.24,3.49,3.49,0,0,0-2.81,1.26,4.71,4.71,0,0,0-1.06,3.17,4.76,4.76,0,0,0,1.06,3.17,3.5,3.5,0,0,0,2.81,1.27,3.63,3.63,0,0,0,2.81-1.23v1.47a4.48,4.48,0,0,1-2.94,1A4.7,4.7,0,0,1,101.77,548.15Z"/><path class="a" d="M120.43,538.63v10.92h-1.31l-.09-1.66a4.27,4.27,0,0,1-1.54,1.38,4.31,4.31,0,0,1-2,.5,4.28,4.28,0,0,1-4.3-4.3v-6.84h1.44v6.69a3.16,3.16,0,0,0,3.17,3.16,3.17,3.17,0,0,0,2.28-.93,3,3,0,0,0,1-2.23v-6.69Z"/><path class="a" d="M130.75,538.94l-.67,1a3.53,3.53,0,0,0-1.49-.29,3.06,3.06,0,0,0-2.26,1,3.4,3.4,0,0,0-1,2.47v6.37h-1.44V538.63h1.33l.07,1.79a4.66,4.66,0,0,1,1.47-1.46,3.53,3.53,0,0,1,1.87-.54A3.65,3.65,0,0,1,130.75,538.94Z"/><path class="a" d="M139,538.94l-.67,1a3.53,3.53,0,0,0-1.49-.29,3.06,3.06,0,0,0-2.26,1,3.4,3.4,0,0,0-1,2.47v6.37h-1.44V538.63h1.33l.07,1.79A4.66,4.66,0,0,1,135,539a3.53,3.53,0,0,1,1.87-.54A3.61,3.61,0,0,1,139,538.94Z"/><path class="a" d="M149.64,544.57h-8.76a4.5,4.5,0,0,0,1.15,2.85,3.47,3.47,0,0,0,2.67,1.08,3.69,3.69,0,0,0,3.23-1.85l1,.72a4.62,4.62,0,0,1-4.28,2.4,4.76,4.76,0,0,1-3.76-1.62,6.51,6.51,0,0,1,0-8.12,4.75,4.75,0,0,1,3.76-1.61,4.58,4.58,0,0,1,3.63,1.56,5.89,5.89,0,0,1,1.37,4C149.66,544.25,149.65,544.44,149.64,544.57Zm-7.56-3.87a4.46,4.46,0,0,0-1.18,2.74h7.45a4.42,4.42,0,0,0-1.13-2.74,3.31,3.31,0,0,0-2.54-1A3.47,3.47,0,0,0,142.08,540.7Z"/><path class="a" d="M160.34,539.63a4.09,4.09,0,0,1,1.21,3v6.9h-1.44v-6.77a3,3,0,0,0-.9-2.18,3.06,3.06,0,0,0-2.24-.9,3.15,3.15,0,0,0-2.29.92,3,3,0,0,0-.94,2.23v6.7H152.3V538.63h1.33l.06,1.64a4.16,4.16,0,0,1,3.63-1.85A4.07,4.07,0,0,1,160.34,539.63Z"/><path class="a" d="M165.58,548.15a6.55,6.55,0,0,1,0-8.12,4.68,4.68,0,0,1,3.72-1.61,4.6,4.6,0,0,1,2.95,1v1.48a3.7,3.7,0,0,0-2.82-1.24,3.47,3.47,0,0,0-2.8,1.26,4.71,4.71,0,0,0-1.06,3.17,4.76,4.76,0,0,0,1.06,3.17,3.48,3.48,0,0,0,2.8,1.27,3.63,3.63,0,0,0,2.82-1.23v1.47a4.49,4.49,0,0,1-2.95,1A4.69,4.69,0,0,1,165.58,548.15Z"/><path class="a" d="M184.26,550.1a5.32,5.32,0,0,1-1.24,3.66,4.62,4.62,0,0,1-3.65,1.4,6.28,6.28,0,0,1-3.85-1.2v-1.61a5.48,5.48,0,0,0,3.93,1.53,3.11,3.11,0,0,0,2.55-1,4.29,4.29,0,0,0,.82-2.77V548a4.57,4.57,0,0,1-1.54,1.32,4.32,4.32,0,0,1-5.05-.77,4.15,4.15,0,0,1-1.25-3v-6.84h1.44v6.69a3.16,3.16,0,0,0,3.17,3.16,3.17,3.17,0,0,0,2.28-.93,3,3,0,0,0,.95-2.23v-6.69h1.42Z"/><path class="a" d="M46.24,574.33a5.25,5.25,0,0,1-1.76-4v-11H46v10.77a4.28,4.28,0,0,0,1.34,3.18,4.39,4.39,0,0,0,3.23,1.31,4.43,4.43,0,0,0,3.25-1.31,4.27,4.27,0,0,0,1.33-3.18V559.37h1.47v11a5.25,5.25,0,0,1-1.76,4,6.43,6.43,0,0,1-8.58,0Z"/><path class="a" d="M61.82,575.08a6,6,0,0,1-2.39-2.26l1-1.09a4.14,4.14,0,0,0,1.86,2,6,6,0,0,0,3.1.8,4.76,4.76,0,0,0,2.79-.76,2.55,2.55,0,0,0,1.09-2.26,2.76,2.76,0,0,0-.25-1.19,3.45,3.45,0,0,0-.58-.88,3.9,3.9,0,0,0-1-.71c-.44-.24-.82-.42-1.11-.55l-1.28-.49c-.63-.23-1.09-.41-1.38-.53s-.68-.33-1.19-.6a4.53,4.53,0,0,1-1.1-.8,3.73,3.73,0,0,1-.64-1,3.18,3.18,0,0,1-.3-1.39,3.71,3.71,0,0,1,1.42-3.13,5.62,5.62,0,0,1,3.5-1.09,7.39,7.39,0,0,1,3,.59,6,6,0,0,1,2.14,1.55l-1,1a4.71,4.71,0,0,0-4.12-1.88,4.06,4.06,0,0,0-2.43.71,2.72,2.72,0,0,0-.7,3.29,2.47,2.47,0,0,0,.91.91,9.21,9.21,0,0,0,1.14.64c.35.16.84.35,1.47.59s1.17.45,1.47.58a11.91,11.91,0,0,1,1.28.65,4.87,4.87,0,0,1,1.22.91,4.55,4.55,0,0,1,.72,1.15,3.82,3.82,0,0,1,.33,1.6,4,4,0,0,1-1.52,3.34A6.25,6.25,0,0,1,65.42,576,7.33,7.33,0,0,1,61.82,575.08Z"/><path class="a" d="M73.71,559.37h4.34a8.19,8.19,0,0,1,0,16.38H73.71Zm4.32,15a6.42,6.42,0,0,0,4.77-2,7,7,0,0,0,0-9.73,6.39,6.39,0,0,0-4.77-2H75.17v13.74Z"/><path class="a" d="M88.42,579.15c.41,0,.75-.26,1-.78a3.33,3.33,0,0,0,.42-1.57c0-.56-.16-.83-.5-.83a1,1,0,0,1-.74-.32,1.06,1.06,0,0,1-.31-.75,1.07,1.07,0,0,1,.31-.77,1,1,0,0,1,.76-.3,1.14,1.14,0,0,1,1.06.64,3.31,3.31,0,0,1,.36,1.63,5.37,5.37,0,0,1-.66,2.62,2,2,0,0,1-1.74,1.2Z"/><path class="a" d="M102.36,562.54a7.44,7.44,0,0,0,0,10.11,6.58,6.58,0,0,0,4.84,2,6.7,6.7,0,0,0,3.21-.8v-5.2h-4.24V567.3h5.57v7.38a8.26,8.26,0,0,1-4.56,1.37,7.83,7.83,0,0,1-5.8-2.4,8.89,8.89,0,0,1,0-12.1,7.82,7.82,0,0,1,5.76-2.4,8.16,8.16,0,0,1,4.59,1.36v1.85a6.22,6.22,0,0,0-4.52-1.81A6.58,6.58,0,0,0,102.36,562.54Z"/><path class="a" d="M125.47,568.76a3.94,3.94,0,0,1,1,2.69,4.08,4.08,0,0,1-1.28,3.08,4.36,4.36,0,0,1-3.13,1.22h-6.81V559.37h5.48a4.46,4.46,0,0,1,3.17,1.22,4.11,4.11,0,0,1,1.28,3.08,4,4,0,0,1-.59,2.18,4.13,4.13,0,0,1-1.61,1.49A4.46,4.46,0,0,1,125.47,568.76Zm-2.7-7.16a3,3,0,0,0-2.19-.92h-3.89v6.25h3.89a3,3,0,0,0,2.19-.92,3.13,3.13,0,0,0,0-4.41Zm1.29,11.9a3.13,3.13,0,0,0,0-4.41,3,3,0,0,0-2.19-.92h-5.18v6.25h5.18A3,3,0,0,0,124.06,573.5Z"/><path class="a" d="M138.14,560.68a4.32,4.32,0,0,1,1.32,3.19,4.47,4.47,0,0,1-4.5,4.5h-4.21v7.38h-1.49V559.37H135A4.36,4.36,0,0,1,138.14,560.68Zm-1,5.51a3,3,0,0,0,.94-2.3,3.08,3.08,0,0,0-1-2.28,3.17,3.17,0,0,0-2.28-.93h-4.13v6.42h4.13A3.16,3.16,0,0,0,137.17,566.19Z"/><path class="a" d="M140,579.15a1.22,1.22,0,0,0,1-.78,3.24,3.24,0,0,0,.43-1.57c0-.56-.17-.83-.5-.83a1,1,0,0,1-.74-.32,1,1,0,0,1-.31-.75,1,1,0,0,1,1.07-1.07,1.14,1.14,0,0,1,1.06.64,3.31,3.31,0,0,1,.36,1.63,5.27,5.27,0,0,1-.67,2.62,2,2,0,0,1-1.73,1.2Z"/><path class="a" d="M161.34,575.75h-1.66l-4-7.47h-3.39v7.47h-1.48V559.37h5.7a4.3,4.3,0,0,1,3.18,1.32,4.35,4.35,0,0,1,1.31,3.2,4.15,4.15,0,0,1-1.09,2.88,4.25,4.25,0,0,1-2.73,1.44ZM156.42,567a3.18,3.18,0,0,0,3.19-3.19,3,3,0,0,0-.94-2.24,3.06,3.06,0,0,0-2.25-.93h-4.17V567Z"/><path class="a" d="M165.23,574.33a5.25,5.25,0,0,1-1.76-4v-11H165v10.77a4.27,4.27,0,0,0,1.33,3.18,4.66,4.66,0,0,0,6.48,0,4.28,4.28,0,0,0,1.34-3.18V559.37h1.46v11a5.25,5.25,0,0,1-1.76,4,6.43,6.43,0,0,1-8.58,0Z"/><path class="a" d="M189.36,568.76a3.91,3.91,0,0,1,1,2.69,4.11,4.11,0,0,1-1.28,3.08,4.38,4.38,0,0,1-3.13,1.22h-6.82V559.37h5.48a4.44,4.44,0,0,1,3.17,1.22,4.16,4.16,0,0,1-.92,6.75A4.43,4.43,0,0,1,189.36,568.76Zm-2.69-7.16a3,3,0,0,0-2.2-.92h-3.88v6.25h3.88a3,3,0,0,0,2.2-.92,3.15,3.15,0,0,0,0-4.41ZM188,573.5a3.15,3.15,0,0,0,0-4.41,3,3,0,0,0-2.2-.92h-5.17v6.25h5.17A3,3,0,0,0,188,573.5Z"/><path class="a" d="M192.44,579.15c.41,0,.75-.26,1-.78a3.33,3.33,0,0,0,.42-1.57c0-.56-.16-.83-.5-.83a1,1,0,0,1-.74-.32,1,1,0,0,1-.31-.75,1,1,0,0,1,1.07-1.07,1.14,1.14,0,0,1,1.06.64,3.31,3.31,0,0,1,.36,1.63,5.27,5.27,0,0,1-.67,2.62,2,2,0,0,1-1.73,1.2Z"/><path class="a" d="M73.49,599.73a9,9,0,0,1,0-12,7.49,7.49,0,0,1,5.72-2.43,7.2,7.2,0,0,1,4.72,1.7v1.81a6.27,6.27,0,0,0-4.72-2.11,6.15,6.15,0,0,0-4.74,2,7.61,7.61,0,0,0,0,10,6.15,6.15,0,0,0,4.74,2,6.23,6.23,0,0,0,4.72-2.09v1.79a7.18,7.18,0,0,1-4.72,1.72A7.49,7.49,0,0,1,73.49,599.73Z"/><path class="a" d="M99.91,585.57v16.37H98.58l-10.4-13.88v13.88H86.7V585.57H88l10.41,13.88V585.57Z"/><path class="a" d="M109.34,594.17v7.77h-1.47v-7.73l-5.72-8.64h1.66l4.78,7.33,4.81-7.33H115Z"/><path class="a" d="M114.05,605.35c.41,0,.75-.26,1-.79a3.27,3.27,0,0,0,.42-1.57c0-.55-.16-.83-.5-.83a1,1,0,0,1-.74-.32,1.06,1.06,0,0,1-.31-.75,1,1,0,0,1,.31-.76A1,1,0,0,1,115,600a1.15,1.15,0,0,1,1.06.65,3.29,3.29,0,0,1,.36,1.62,5.34,5.34,0,0,1-.66,2.62,2,2,0,0,1-1.74,1.2Z"/><path class="a" d="M124.79,585.57h1.49v16.37h-1.49Z"/><path class="a" d="M143,585.57v16.37h-1.33l-10.4-13.88v13.88h-1.48V585.57h1.33l10.42,13.88V585.57Z"/><path class="a" d="M157,601.94h-1.66l-4-7.46H148v7.46h-1.48V585.57h5.7a4.34,4.34,0,0,1,3.19,1.32,4.39,4.39,0,0,1,1.31,3.2,4.2,4.2,0,0,1-1.1,2.88,4.32,4.32,0,0,1-2.73,1.44Zm-4.92-8.71a3.17,3.17,0,0,0,2.25-5.43,3.09,3.09,0,0,0-2.25-.92H148v6.35Z"/><path class="a" d="M164.12,601.84a1.07,1.07,0,0,1,.75-1.82,1.07,1.07,0,0,1,.76.32,1.07,1.07,0,0,1-.76,1.82A1,1,0,0,1,164.12,601.84Z"/><path class="a" d="M167.79,601.84a1,1,0,0,1,0-1.5,1.06,1.06,0,1,1,1.5,1.5,1,1,0,0,1-1.5,0Z"/><path class="a" d="M171.45,601.84a1.06,1.06,0,0,1,0-1.5,1.06,1.06,0,1,1,1.51,1.5,1.05,1.05,0,0,1-1.51,0Z"/><ellipse class="b" cx="310.51" cy="135.72" rx="56.89" ry="33.54"/><ellipse class="b" cx="310.51" cy="135.72" rx="37.16" ry="21.91"/><g class="c"><ellipse class="d" cx="327.26" cy="26.27" rx="15.66" ry="31.92" transform="translate(62.09 219.85) rotate(-40.72)"/><path class="d" d="M329.78,50.71c-21.27-12.42-37.06-6.44-34.89,13.34l76.91,45C369.81,89.26,351,63.22,329.78,50.71Z"/></g><ellipse class="e" cx="320.37" cy="31.01" rx="15.66" ry="31.92" transform="translate(57.33 216.5) rotate(-40.72)"/><path class="e" d="M322.83,55.53C301.56,43.07,285.77,49,287.94,68.87l76.91,45C362.9,94,344.05,67.85,322.83,55.53Z"/><ellipse class="f" cx="313.95" cy="36.78" rx="15.66" ry="31.92" transform="translate(52.01 213.72) rotate(-40.72)"/><path class="g" d="M316.39,61.23c-21.22-12.42-37.06-6.44-34.84,13.34l76.91,45C356.46,99.77,337.65,73.64,316.39,61.23Z"/><ellipse class="h" cx="306.3" cy="42.76" rx="15.66" ry="31.92" transform="translate(46.25 210.17) rotate(-40.72)"/><path class="i" d="M308.75,67.25c-21.27-12.42-37.07-6.44-34.89,13.34l76.91,45C348.77,105.79,330,79.71,308.75,67.25Z"/><polyline class="j" points="312.21 270.08 312.21 322.23 502.37 322.23 502.37 382.86"/><polyline class="j" points="312.21 270.08 312.21 322.23 122.05 322.23 122.05 382.86"/><line class="j" x1="312.21" y1="322.23" x2="312.21" y2="382.86"/><rect class="k" x="88.93" y="396.58" width="66.25" height="66.25" transform="translate(-268.1 212.16) rotate(-45)"/><rect class="k" x="277.38" y="396.58" width="66.25" height="66.25" transform="translate(-212.9 345.42) rotate(-45)"/><rect class="k" x="465.84" y="396.58" width="66.25" height="66.25" transform="translate(-157.71 478.68) rotate(-45)"/><line class="l" x1="310.51" y1="476.55" x2="310.51" y2="567.81"/><line class="j" x1="262.95" y1="567.81" x2="358.06" y2="567.81"/><rect class="m" x="358.06" y="519" width="261.95" height="97.63"/><rect class="n" x="1" y="519" width="261.95" height="97.63"/></svg>